<?xml version="1.0" standalone="no"?>
<!DOCTYPE svg PUBLIC "-//W3C//DTD SVG 20010904//EN"
 "http://www.w3.org/TR/2001/REC-SVG-20010904/DTD/svg10.dtd">
<svg version="1.0" xmlns="http://www.w3.org/2000/svg"
 width="251.000000pt" height="238.000000pt" viewBox="0 0 251.000000 238.000000"
 preserveAspectRatio="xMidYMid meet">

<g transform="translate(0.000000,238.000000) scale(0.100000,-0.100000)"
fill="#287878" stroke="none">
<path d="M2115 2210 c-198 -48 -731 -176 -1185 -284 -454 -108 -847 -202 -875
-209 l-50 -13 -3 -852 -2 -852 495 0 495 0 0 253 0 252 -212 150 c-274 194
-318 230 -318 259 0 28 61 96 87 96 20 0 145 -83 397 -263 l149 -107 144 0
144 0 217 155 c227 162 326 221 356 209 18 -7 56 -73 56 -98 0 -18 -101 -97
-345 -273 l-180 -129 -3 -252 -2 -252 515 0 515 0 0 1150 c0 1089 -1 1150 -17
1149 -10 -1 -180 -41 -378 -89z m-804 -1042 c119 -40 180 -160 144 -283 -21
-73 -63 -119 -133 -145 -230 -87 -412 181 -250 366 58 66 154 91 239 62z"/>
</g>
</svg>
