<?xml version="1.0" standalone="no"?>
<!DOCTYPE svg PUBLIC "-//W3C//DTD SVG 20010904//EN"
 "http://www.w3.org/TR/2001/REC-SVG-20010904/DTD/svg10.dtd">
<svg version="1.0" xmlns="http://www.w3.org/2000/svg"
 width="792.000000pt" height="178.000000pt" viewBox="0 0 792.000000 178.000000"
 preserveAspectRatio="xMidYMid meet">

<g transform="translate(0.000000,178.000000) scale(0.100000,-0.100000)"
fill="#FFFFFF" stroke="none">
<path d="M1780 1739 c-63 -16 -248 -60 -410 -99 -162 -38 -428 -101 -590 -140
-162 -39 -401 -95 -530 -126 -129 -31 -238 -58 -242 -60 -5 -3 -8 -297 -8
-655 l0 -649 380 0 380 0 0 203 0 203 -182 130 c-197 139 -218 156 -218 178 0
22 49 76 69 76 9 0 104 -63 211 -140 l195 -140 111 0 111 0 197 141 c213 153
225 158 259 99 10 -16 16 -39 12 -49 -3 -10 -93 -81 -200 -157 l-195 -139 0
-202 0 -203 390 0 390 0 0 880 c0 484 -3 880 -7 879 -5 -1 -60 -14 -123 -30z
m-787 -820 c50 -13 103 -61 118 -106 17 -53 7 -126 -24 -166 -75 -99 -236 -87
-294 22 -29 56 -29 105 0 161 25 50 59 78 108 90 47 11 50 11 92 -1z"/>
<path d="M5317 1336 c-71 -26 -109 -78 -109 -152 0 -89 52 -134 206 -177 105
-30 135 -53 120 -94 -13 -38 -68 -65 -117 -59 -51 6 -86 30 -103 72 -13 31
-18 34 -57 33 -75 -1 -79 -5 -57 -69 33 -99 101 -140 231 -140 151 0 237 74
227 197 -8 95 -55 136 -205 177 -95 27 -133 47 -133 71 0 20 33 43 72 50 53
10 103 -9 118 -45 12 -28 16 -30 71 -30 57 0 59 1 59 25 0 54 -47 112 -112
140 -46 19 -159 19 -211 1z"/>
<path d="M7577 1336 c-71 -26 -109 -78 -109 -152 0 -89 52 -134 206 -177 105
-30 135 -53 120 -94 -13 -38 -68 -65 -117 -59 -51 6 -86 30 -103 72 -13 31
-18 34 -57 33 -75 -1 -79 -5 -57 -69 33 -99 101 -140 231 -140 151 0 237 74
227 197 -8 95 -55 136 -205 177 -95 27 -133 47 -133 71 0 20 33 43 72 50 53
10 103 -9 118 -45 12 -28 16 -30 71 -30 57 0 59 1 59 25 0 54 -47 112 -112
140 -46 19 -159 19 -211 1z"/>
<path d="M2130 1050 l0 -290 60 0 60 0 1 203 1 202 51 -202 52 -203 60 0 60 0
52 203 51 202 1 -202 1 -203 60 0 60 0 0 290 0 291 -92 -3 -93 -3 -49 -189
c-28 -104 -51 -185 -53 -179 -2 5 -25 91 -51 189 l-48 179 -92 3 -92 3 0 -291z"/>
<path d="M2800 1050 l0 -290 225 0 225 0 0 50 0 50 -160 0 -160 0 0 75 0 75
145 0 145 0 0 50 0 50 -145 0 -145 0 0 65 0 65 155 0 155 0 0 50 0 50 -220 0
-220 0 0 -290z"/>
<path d="M3340 1050 l0 -290 60 0 60 0 2 182 3 182 110 -182 110 -181 63 -1
62 0 0 290 0 290 -55 0 -55 0 0 -187 c-1 -220 14 -222 -133 19 l-102 168 -62
0 -63 0 0 -290z"/>
<path d="M4160 1050 l0 -290 60 0 60 0 0 290 0 290 -60 0 -60 0 0 -290z"/>
<path d="M4390 1050 l0 -290 60 0 60 0 2 182 3 182 110 -182 110 -181 63 -1
62 0 0 290 0 290 -55 0 -55 0 0 -187 c-1 -220 14 -222 -133 19 l-102 168 -62
0 -63 0 0 -290z"/>
<path d="M5750 1050 l0 -290 65 0 65 0 0 125 0 125 110 0 110 0 0 -125 0 -125
60 0 60 0 0 290 0 290 -60 0 -60 0 0 -115 0 -115 -110 0 -110 0 0 115 0 115
-65 0 -65 0 0 -290z"/>
<path d="M6340 1050 l0 -290 225 0 225 0 0 50 0 50 -160 0 -160 0 0 75 0 75
145 0 145 0 0 50 0 50 -145 0 -145 0 0 65 0 65 155 0 155 0 0 50 0 50 -220 0
-220 0 0 -290z"/>
<path d="M6880 1050 l0 -290 148 0 c179 0 214 9 268 65 54 56 74 116 74 225 0
101 -17 160 -62 214 -54 65 -90 76 -270 76 l-158 0 0 -290z m304 166 c50 -32
61 -62 61 -166 0 -151 -34 -188 -172 -189 l-63 -1 0 191 0 192 74 -5 c46 -3
85 -11 100 -22z"/>
<path d="M2290 516 l0 -196 25 0 24 0 3 158 3 157 54 -158 c52 -153 54 -158
80 -155 24 3 30 14 78 153 l52 150 0 -152 1 -153 25 0 25 0 0 196 0 195 -37
-3 -37 -3 -50 -152 c-28 -84 -53 -153 -56 -153 -3 0 -28 69 -56 153 l-50 152
-42 3 -42 3 0 -195z"/>
<path d="M2850 515 l0 -195 30 0 30 0 0 195 0 195 -30 0 -30 0 0 -195z"/>
<path d="M3090 515 l0 -195 126 0 c124 0 125 0 122 23 -3 21 -8 22 -95 25
l-93 3 0 169 0 170 -30 0 -30 0 0 -195z"/>
<path d="M3460 685 c0 -24 2 -25 65 -25 l65 0 0 -170 0 -170 30 0 30 0 0 170
0 170 60 0 c57 0 60 1 60 25 l0 25 -155 0 -155 0 0 -25z"/>
<path d="M4015 696 c-38 -17 -80 -62 -94 -99 -15 -39 -14 -131 3 -170 43 -103
191 -141 282 -72 98 75 98 245 -1 321 -30 23 -50 29 -99 31 -37 2 -73 -2 -91
-11z m144 -51 c56 -29 79 -138 45 -211 -32 -67 -135 -87 -192 -39 -61 51 -61
189 0 240 35 29 101 34 147 10z"/>
<path d="M4440 515 l0 -195 30 0 29 0 3 142 3 141 94 -141 c84 -128 97 -142
122 -142 l29 0 0 195 0 195 -25 0 -24 0 -3 -147 -3 -148 -97 148 c-90 136
-100 147 -128 147 l-30 0 0 -195z"/>
<path d="M5180 515 l0 -195 30 0 30 0 0 73 c0 65 3 76 24 96 14 13 29 20 34
17 5 -3 37 -46 71 -96 58 -84 64 -90 97 -90 41 0 45 -10 -54 128 l-75 104 79
79 79 79 -34 0 c-27 0 -48 -14 -124 -85 l-92 -85 -3 85 -3 85 -29 0 -30 0 0
-195z"/>
<path d="M5640 515 l0 -195 151 0 c150 0 150 0 147 23 -3 21 -7 22 -120 25
l-118 3 0 59 0 60 105 0 105 0 0 25 0 25 -105 0 -105 0 0 60 0 60 115 0 115 0
0 25 0 25 -145 0 -145 0 0 -195z"/>
<path d="M6135 601 l75 -109 0 -86 0 -86 30 0 30 0 0 89 c0 70 4 93 18 112 10
13 44 61 76 107 l57 82 -33 0 c-30 0 -37 -7 -89 -85 l-56 -85 -56 85 c-53 80
-59 85 -92 85 l-35 0 75 -109z"/>
<path d="M6560 515 l0 -195 30 0 29 0 3 142 3 141 94 -141 c84 -128 97 -142
122 -142 l29 0 0 195 0 195 -25 0 -24 0 -3 -147 -3 -148 -97 148 c-90 136
-100 147 -128 147 l-30 0 0 -195z"/>
<path d="M7050 515 l0 -195 151 0 c150 0 150 0 147 23 -3 21 -7 22 -120 25
l-118 3 0 59 0 60 105 0 105 0 0 25 0 25 -105 0 -105 0 0 60 0 60 115 0 115 0
0 25 0 25 -145 0 -145 0 0 -195z"/>
<path d="M7563 690 c-37 -22 -53 -48 -53 -85 0 -58 34 -82 171 -119 56 -16 69
-28 69 -66 0 -69 -179 -64 -196 5 -4 18 -13 25 -29 25 -33 0 -37 -11 -17 -51
27 -53 74 -79 146 -79 71 0 116 22 141 70 32 62 -11 128 -98 150 -23 6 -59 16
-79 21 -40 10 -62 37 -52 64 17 42 111 49 149 10 14 -13 25 -29 25 -35 0 -5
11 -10 25 -10 49 0 24 75 -35 105 -42 22 -128 19 -167 -5z"/>
</g>
</svg>
